<svg width="104" height="65" viewBox="0 0 104 65" fill="none" xmlns="http://www.w3.org/2000/svg">
<path d="M85.0539 29.5345L85.0317 15.3485C85.028 13.0118 82.9155 11.1094 80.3155 11.1094L23.6365 11.194C22.3992 11.194 21.2285 11.6282 20.3458 12.4121C19.441 13.2179 18.9424 14.2961 18.9424 15.4443L18.9645 29.6303C18.9719 35.827 24.5782 40.8724 31.4994 40.9563C31.3184 41.453 31.1559 41.9572 31.0266 42.4724C30.8088 43.3261 30.8124 44.235 30.8161 45.1991C30.8198 46.1558 30.8235 47.142 30.5909 48.0509C30.3877 48.8384 29.9593 49.6111 29.5051 50.428C29.025 51.2891 28.5301 52.1833 28.2789 53.1547C28.1792 53.5484 28.4156 53.9495 28.8108 54.0489C28.8735 54.0636 28.9326 54.071 28.9954 54.071C29.3241 54.071 29.6269 53.8502 29.7119 53.519C29.915 52.7315 30.3434 51.9588 30.7976 51.1419C31.2778 50.2808 31.7726 49.3866 32.0238 48.4152C32.3045 47.326 32.3008 46.2404 32.2934 45.1917C32.2897 44.3269 32.286 43.5063 32.4596 42.8366C32.6258 42.1963 32.8437 41.5745 33.0874 40.9635L37.4491 40.9562H37.4565H37.4713L39.7537 40.9525C39.5912 41.6222 39.4582 42.2957 39.3807 42.98C39.281 43.8558 39.4102 44.7537 39.5506 45.7104C39.6872 46.6561 39.8276 47.635 39.7205 48.5659C39.6281 49.3754 39.3105 50.1997 38.9744 51.0719C38.6199 51.9918 38.2506 52.9449 38.1398 53.9385C38.0955 54.3433 38.3872 54.7076 38.7898 54.7517C38.8193 54.7554 38.8452 54.7554 38.8747 54.7554C39.244 54.7554 39.5653 54.4794 39.606 54.1004C39.6983 53.2908 40.0159 52.4665 40.352 51.5944C40.7065 50.6744 41.0758 49.7214 41.1866 48.7241C41.3122 47.6055 41.1571 46.531 41.0094 45.4933C40.8875 44.6359 40.7693 43.8263 40.8469 43.1382C40.9318 42.3949 41.0795 41.6663 41.2716 40.9414L47.9267 40.9303C47.8344 41.6369 47.7753 42.3434 47.7753 43.0536C47.7753 43.933 48.0043 44.8125 48.2517 45.7472C48.4955 46.6708 48.7429 47.6276 48.7429 48.5659C48.7429 49.3792 48.5213 50.2329 48.2813 51.1382C48.0301 52.0912 47.7753 53.0811 47.7753 54.082C47.7753 54.4868 48.1077 54.818 48.5139 54.818C48.9202 54.818 49.2526 54.4868 49.2526 54.082C49.2526 53.2688 49.4742 52.4151 49.7142 51.5098C49.9654 50.5567 50.2202 49.5668 50.2202 48.5659C50.2202 47.4399 49.9469 46.3912 49.681 45.3756C49.4631 44.5366 49.2526 43.7454 49.2526 43.0537C49.2526 42.3435 49.3154 41.6333 49.4151 40.9268L52.0004 40.9378L54.5893 40.9341C54.689 41.6406 54.7518 42.3545 54.7518 43.0684C54.7518 43.7602 54.545 44.5513 54.3234 45.3903C54.0575 46.4059 53.7842 47.4546 53.7842 48.5807C53.7842 49.5816 54.0427 50.5714 54.2902 51.5245C54.5265 52.4297 54.7518 53.2835 54.7518 54.0967C54.7518 54.5015 55.0842 54.8327 55.4904 54.8327C55.8967 54.8327 56.2291 54.5015 56.2291 54.0967C56.2291 53.0958 55.9705 52.1059 55.7231 51.1529C55.4867 50.2476 55.2615 49.3939 55.2615 48.5807C55.2615 47.646 55.5126 46.6892 55.7526 45.7619C55.9964 44.8309 56.2291 43.9478 56.2291 43.0683C56.2291 42.3544 56.1663 41.6405 56.0776 40.9303L62.7253 40.9193C62.9211 41.6516 63.0725 42.3949 63.1574 43.1456C63.235 43.8337 63.1168 44.6432 62.9949 45.5007C62.8472 46.5384 62.6921 47.6129 62.8177 48.7315C62.9321 49.7288 63.2978 50.6782 63.6523 51.6018C63.9884 52.4739 64.306 53.2982 64.3983 54.1078C64.4426 54.4831 64.7603 54.7628 65.1296 54.7628C65.1591 54.7628 65.185 54.7628 65.2145 54.7591C65.6208 54.715 65.9125 54.347 65.8645 53.9459C65.75 52.9487 65.3844 51.9993 65.0299 51.0793C64.6938 50.2072 64.3762 49.3829 64.2838 48.5733C64.1767 47.6423 64.3208 46.6635 64.4537 45.7178C64.5904 44.7648 64.7196 43.8632 64.6236 42.9875C64.5461 42.292 64.4057 41.6038 64.2432 40.9231L70.8947 40.9121C71.1495 41.5413 71.3748 42.1816 71.5447 42.8403C71.7183 43.51 71.7146 44.3269 71.7109 45.1954C71.7072 46.2441 71.7035 47.3296 71.9805 48.4189C72.2316 49.3903 72.7265 50.2809 73.2067 51.1456C73.6609 51.9625 74.0893 52.7353 74.2924 53.5227C74.3774 53.8539 74.6765 54.0747 75.0089 54.0747C75.068 54.0747 75.1308 54.0673 75.1935 54.0526C75.5887 53.9532 75.8251 53.5522 75.7254 53.1584C75.4742 52.187 74.9793 51.2964 74.4992 50.4317C74.0449 49.6148 73.6165 48.842 73.4134 48.0546C73.1808 47.1457 73.1845 46.1595 73.1882 45.2028C73.1919 44.2387 73.1955 43.3298 72.9776 42.4761C72.841 41.9425 72.6711 41.42 72.4828 40.9048C79.4334 40.8238 85.0615 35.753 85.0539 29.5345ZM34.2433 36.8463C33.9035 36.7579 33.5563 36.9162 33.4012 37.2142L33.3495 37.2952C33.1649 37.5749 32.9987 37.8619 32.8288 38.1489C31.5583 37.3283 30.5797 36.1839 30.0552 34.8518L73.9744 34.7892C73.5977 35.757 72.9846 36.6476 72.1426 37.3982C71.836 37.6705 71.5074 37.9097 71.1602 38.1305C70.994 37.8508 70.8352 37.5675 70.6505 37.2952L70.5988 37.2142C70.4437 36.9198 70.0965 36.7579 69.7568 36.8462C69.3616 36.9493 69.1289 37.354 69.2323 37.7478C69.2656 37.8766 69.3173 37.9538 69.4207 38.1084C69.5721 38.3365 69.7051 38.5721 69.8454 38.8076C68.8298 39.2197 67.7218 39.4442 66.5696 39.4478H63.8108C63.5892 38.8002 63.3417 38.1599 63.0426 37.5344L63.0019 37.4461C62.8875 37.1333 62.5625 36.9235 62.2227 36.9677C61.8164 37.0155 61.5284 37.3798 61.5764 37.7846C61.5912 37.9208 61.6318 38.0054 61.713 38.1747C61.9161 38.5942 62.0971 39.021 62.2596 39.4516L55.8224 39.4626C55.6747 38.7966 55.5011 38.1342 55.2758 37.4829L55.2426 37.3909C55.165 37.0671 54.8732 36.8242 54.5224 36.8242C54.1161 36.8242 53.7838 37.1554 53.7838 37.5602C53.7838 37.6963 53.8133 37.7883 53.8761 37.9649C54.0497 38.4617 54.1863 38.9622 54.3082 39.4663L49.688 39.4737C49.8099 38.9659 49.9503 38.4654 50.1238 37.9686C50.1866 37.7883 50.2162 37.7 50.2162 37.5638C50.2162 37.1591 49.8838 36.8279 49.4775 36.8279C49.1267 36.8279 48.8349 37.0707 48.7574 37.3946L48.7241 37.4866C48.4951 38.1416 48.3216 38.8076 48.1738 39.4774L41.7292 39.4884C41.8954 39.0468 42.0764 38.6089 42.2832 38.1821C42.3645 38.0128 42.4051 37.9282 42.4199 37.792C42.4679 37.3872 42.1761 37.0229 41.7736 36.9751C41.4301 36.931 41.1088 37.1407 40.9943 37.4535L40.9537 37.5418C40.6471 38.1784 40.396 38.8297 40.1744 39.4884L37.4452 39.4921C36.2597 39.4921 35.1443 39.2529 34.1361 38.8371C34.2801 38.5942 34.4205 38.3477 34.5756 38.1122C34.679 37.9576 34.7307 37.8803 34.7639 37.7515C34.871 37.3504 34.6348 36.9493 34.2433 36.8463ZM29.6194 32.6328L29.6157 30.8334L74.3915 30.7671L74.3952 32.5666C74.3952 32.8168 74.3768 33.0671 74.3472 33.3136L29.6707 33.3799C29.6412 33.1333 29.6231 32.8831 29.6194 32.6328ZM72.3388 39.4368H71.8587C71.8587 39.4368 71.8587 39.4332 71.855 39.4332C72.3019 39.1535 72.7303 38.8444 73.1255 38.4948C74.902 36.9162 75.877 34.8113 75.8732 32.5666L75.8695 30.0312C75.8695 29.8362 75.792 29.6486 75.6516 29.5124C75.5113 29.3763 75.3266 29.299 75.1309 29.299L28.8774 29.3652C28.6816 29.3652 28.4933 29.4425 28.3566 29.5823C28.2163 29.7222 28.1424 29.9061 28.1424 30.1049L28.1461 32.6402C28.1498 35.459 29.7305 37.9538 32.1348 39.4589C32.1274 39.4736 32.12 39.4847 32.1163 39.4994H31.7027L31.6842 40.2354V39.4994C25.4944 39.4994 20.4532 35.0726 20.4456 29.6335L20.4235 15.4475C20.4235 14.7226 20.7448 14.0381 21.332 13.5156C21.9451 12.971 22.7649 12.6729 23.6402 12.6729L80.3268 12.592C82.1069 12.592 83.5547 13.8357 83.5584 15.3592L83.5806 29.5452C83.5843 34.9839 78.5438 39.4255 72.3388 39.4368Z" fill="black"/>
<path d="M58.8759 18.6197C58.7356 18.4835 58.5509 18.4062 58.3552 18.4062L45.6615 18.4246C45.2552 18.4246 44.9229 18.7558 44.9229 19.1606L44.9265 23.6242C44.9265 23.8193 45.0041 24.0069 45.1444 24.1431C45.2848 24.2792 45.4694 24.3565 45.6652 24.3565L58.3589 24.3381C58.7651 24.3381 59.0975 24.0069 59.0975 23.6021L59.0938 19.1385C59.0938 18.9472 59.0162 18.7595 58.8759 18.6197ZM46.4044 22.8882L46.4007 19.8965L57.6166 19.8781L57.6203 22.8698L46.4044 22.8882Z" fill="black"/>
</svg>
