<svg width="70" height="71" viewBox="0 0 70 71" fill="none" xmlns="http://www.w3.org/2000/svg">
<path fill-rule="evenodd" clip-rule="evenodd" d="M6.9039 26.8578C5.95461 25.8223 4.31493 25.8223 3.36565 26.7715L0.776688 29.2742C0.258896 29.7057 0 30.3961 0 31.0002C0 31.6906 0.258896 32.2947 0.69039 32.8125L8.37097 40.8382C8.88877 41.356 9.49286 41.6149 10.1832 41.6149C10.7873 41.6149 11.3914 41.356 11.9092 40.9245L14.4982 38.4219C15.5338 37.4726 15.5338 35.9192 14.5845 34.8836L12.9448 33.1576L14.9297 31.2591L17.6912 34.1069C18.0364 34.4521 18.6405 34.5384 19.072 34.1069L20.798 32.4673L22.7829 34.5384L1.81227 60.428C1.29448 61.0321 1.29448 61.9814 1.89857 62.4992L8.80247 69.1442C9.06136 69.4031 9.40656 69.5757 9.83805 69.5757C10.1832 69.5757 10.5284 69.4031 10.8736 69.1442L35.1236 47.6558L56.5257 70.1798C56.6982 70.3524 56.9571 70.4387 57.216 70.4387C57.4749 70.4387 57.7338 70.3524 57.9064 70.1798L68.7801 59.824C68.9527 59.6514 69.039 59.3925 69.039 59.1336C69.039 58.8747 68.9527 58.6158 68.7801 58.4432L60.5817 49.8133L45.9109 34.3658L62.7392 16.8472L66.7089 12.7049C67.313 12.0145 67.6582 11.1515 67.6582 10.2022C67.6582 9.25291 67.2267 8.38992 66.6226 7.78583L60.7543 2.09011C60.0639 1.48602 59.2009 1.14083 58.2516 1.14083C57.3023 1.14083 56.4394 1.57232 55.8353 2.17641L38.5755 20.1265L35.3825 23.4059L33.0524 20.9032L34.951 19.091C35.2962 18.7458 35.3825 18.1417 34.951 17.7102C34.5195 17.1924 34.0017 16.8472 33.5702 16.4157C33.1387 16.0705 32.4483 15.3801 32.4483 15.2075C32.4483 15.2075 32.5346 15.0349 32.7935 14.6897C36.7632 10.9789 37.5399 10.8063 39.4385 10.2885C40.5604 10.0296 42.2001 9.5981 44.9616 8.38992C45.2205 8.21732 45.4794 7.95843 45.5657 7.69953C45.652 7.35433 45.4794 7.09544 45.3068 6.83654L40.5604 2.52161C37.1084 -0.498848 32.2757 -0.671445 29.169 2.26271L7.85318 22.5429C7.68058 22.7155 7.59429 22.9744 7.59429 23.2333C7.59429 23.4922 7.68058 23.7511 7.85318 23.9237L10.6147 26.7715L8.62987 28.6701L6.9039 26.8578ZM31.6716 22.284L34.6921 25.4771L38.4892 29.4468L28.9964 38.4219L22.0925 31.1728L31.6716 22.284ZM58.5105 50.5037L49.0177 59.4788L35.814 45.5847L30.3771 39.8889L39.87 30.9139L58.5105 50.5037ZM9.83805 67.4182L3.53825 61.3773L24.1636 36.0918L33.8291 46.2751L9.83805 67.4182ZM57.216 68.1086L50.3121 60.8595L59.805 51.8845L66.7089 59.1336L57.216 68.1086ZM52.4696 8.38992L60.668 16.2431L48.7588 28.6701L40.5604 20.8169L52.4696 8.38992ZM57.1297 3.55719C57.3886 3.2983 57.8201 3.1257 58.2516 3.0394C58.6831 3.0394 59.0283 3.212 59.3735 3.47089L65.3281 9.16661C65.587 9.4255 65.7596 9.857 65.8459 10.2885C65.8459 10.72 65.6733 11.0652 65.4144 11.4104L62.0488 14.8623L53.8504 7.00914L57.1297 3.55719ZM39.2659 22.1977L47.4643 30.0509L44.6164 32.9851L40.733 28.8427L36.8495 24.7867L39.2659 22.1977ZM12.5996 27.4619C13.0311 27.1167 13.0311 26.5126 12.5996 26.0812L9.92435 23.2333L30.4634 3.72979C32.7935 1.48602 36.5907 1.57232 39.2659 3.98869L42.8905 7.26804C41.0782 7.95843 39.9563 8.30362 39.0933 8.47622C36.7632 9.08031 35.814 9.4255 31.6716 13.3089C30.9812 13.913 30.636 14.6034 30.7223 15.2075C30.7223 16.2431 31.5853 17.0198 32.5346 17.7965C32.7072 17.9691 32.8798 18.1417 33.0524 18.3143L31.0675 20.2128L20.1939 30.5687L18.4679 32.2084L15.7064 29.3605C15.3612 29.0153 14.7571 28.929 14.3256 29.3605L10.9599 32.5536C10.7873 32.7262 10.701 32.9851 10.701 33.2439C10.701 33.5028 10.7873 33.7617 10.9599 33.9343L13.29 36.3507C13.5489 36.6096 13.5489 36.9548 13.29 37.2137L10.701 39.7164C10.4421 39.9752 10.0969 39.8889 9.83805 39.7164L2.15747 31.6906C1.89857 31.4317 1.98487 31.0865 2.15747 30.8276L4.74643 28.3249C4.83273 28.2386 5.00532 28.1523 5.17792 28.1523C5.35052 28.1523 5.52312 28.2386 5.60942 28.3249L7.93948 30.7413C8.28468 31.0865 8.88877 31.1728 9.32026 30.7413L12.5996 27.4619Z" fill="white"/>
</svg>
