<svg width="53" height="53" viewBox="0 0 53 53" fill="none" xmlns="http://www.w3.org/2000/svg">
<path fill-rule="evenodd" clip-rule="evenodd" d="M5.3 20.1357C4.57125 19.3547 3.3125 19.3547 2.58375 20.0706L0.59625 21.9579C0.19875 22.2832 0 22.8039 0 23.2594C0 23.78 0.19875 24.2356 0.53 24.626L6.42625 30.6783C6.82375 31.0688 7.2875 31.264 7.8175 31.264C8.28125 31.264 8.745 31.0688 9.1425 30.7434L11.13 28.8561C11.925 28.1403 11.925 26.9689 11.1962 26.1879L9.9375 24.8864L11.4613 23.4546L13.5813 25.6022C13.8463 25.8625 14.31 25.9276 14.6412 25.6022L15.9662 24.3657L17.49 25.9276L1.39125 45.451C0.99375 45.9065 0.99375 46.6224 1.4575 47.0128L6.7575 52.0238C6.95625 52.2191 7.22125 52.3492 7.5525 52.3492C7.8175 52.3492 8.0825 52.2191 8.3475 52.0238L26.9638 35.8194L43.3938 52.8048C43.5263 52.9349 43.725 53 43.9238 53C44.1225 53 44.3213 52.9349 44.4538 52.8048L52.8013 44.9954C52.9338 44.8653 53 44.67 53 44.4748C53 44.2796 52.9338 44.0843 52.8013 43.9542L46.5075 37.4464L35.245 25.7975L48.1637 12.5866L51.2113 9.4629C51.675 8.94228 51.94 8.2915 51.94 7.57565C51.94 6.85979 51.6087 6.20901 51.145 5.75347L46.64 1.45833C46.11 1.00278 45.4475 0.74247 44.7188 0.74247C43.99 0.74247 43.3275 1.06786 42.8638 1.5234L29.6138 15.0596L27.1625 17.5326L25.3738 15.6453L26.8313 14.2787C27.0963 14.0184 27.1625 13.5628 26.8313 13.2374C26.5 12.847 26.1025 12.5866 25.7713 12.2613C25.44 12.0009 24.91 11.4803 24.91 11.3502C24.91 11.3502 24.9763 11.22 25.175 10.9597C28.2225 8.16135 28.8188 8.03119 30.2763 7.64072C31.1375 7.44549 32.3963 7.1201 34.5163 6.20901C34.715 6.07886 34.9137 5.88362 34.98 5.68839C35.0462 5.42808 34.9137 5.23284 34.7812 5.03761L31.1375 1.78372C28.4875 -0.494009 24.7775 -0.624165 22.3925 1.58848L6.02875 16.8818C5.89625 17.0119 5.83 17.2072 5.83 17.4024C5.83 17.5976 5.89625 17.7929 6.02875 17.923L8.14875 20.0706L6.625 21.5023L5.3 20.1357ZM24.3138 16.6865L26.6325 19.0944L29.5475 22.088L22.26 28.8561L16.96 23.3896L24.3138 16.6865ZM44.9175 37.967L37.63 44.7351L27.4938 34.2576L23.32 29.9624L30.6075 23.1943L44.9175 37.967ZM7.5525 50.7223L2.71625 46.1668L18.55 27.099L25.97 34.7782L7.5525 50.7223ZM43.9238 51.2429L38.6238 45.7764L45.9113 39.0083L51.2113 44.4748L43.9238 51.2429ZM40.28 6.20901L46.5738 12.1311L37.4313 21.5023L31.1375 15.5802L40.28 6.20901ZM43.8575 2.56465C44.0562 2.36942 44.3875 2.23926 44.7188 2.17418C45.05 2.17418 45.315 2.30434 45.58 2.49957L50.1512 6.79471C50.35 6.98995 50.4825 7.31534 50.5488 7.64072C50.5488 7.96611 50.4163 8.22643 50.2175 8.48674L47.6338 11.0899L41.34 5.16777L43.8575 2.56465ZM30.1438 16.6215L36.4375 22.5436L34.2513 24.7562L31.27 21.6325L28.2888 18.5738L30.1438 16.6215ZM9.6725 20.5912C10.0038 20.3309 10.0038 19.8754 9.6725 19.55L7.61875 17.4024L23.3862 2.69481C25.175 1.00278 28.09 1.06786 30.1438 2.89004L32.9263 5.363C31.535 5.88362 30.6737 6.14393 30.0113 6.27409C28.2225 6.72963 27.4938 6.98995 24.3138 9.91845C23.7838 10.374 23.5187 10.8946 23.585 11.3502C23.585 12.1311 24.2475 12.7168 24.9763 13.3025C25.1088 13.4327 25.2413 13.5628 25.3738 13.693L23.85 15.1247L15.5025 22.934L14.1775 24.1705L12.0575 22.0229C11.7925 21.7626 11.3288 21.6975 10.9975 22.0229L8.41375 24.4308C8.28125 24.561 8.215 24.7562 8.215 24.9514C8.215 25.1467 8.28125 25.3419 8.41375 25.4721L10.2025 27.2942C10.4012 27.4895 10.4012 27.7498 10.2025 27.945L8.215 29.8323C8.01625 30.0275 7.75125 29.9624 7.5525 29.8323L1.65625 23.78C1.4575 23.5848 1.52375 23.3245 1.65625 23.1293L3.64375 21.242C3.71 21.1769 3.8425 21.1118 3.975 21.1118C4.1075 21.1118 4.24 21.1769 4.30625 21.242L6.095 23.0642C6.36 23.3245 6.82375 23.3896 7.155 23.0642L9.6725 20.5912Z" fill="black"/>
<path fill-rule="evenodd" clip-rule="evenodd" d="M7.51236 44.7423C7.16469 45.0205 7.16469 45.5072 7.44283 45.8549C7.5819 45.9939 7.7905 46.133 7.99911 46.133C8.20771 46.133 8.34678 46.0635 8.48585 45.9244L21.4889 34.1034C21.8366 33.8253 21.8366 33.3386 21.5585 32.9909C21.2803 32.6432 20.7936 32.6432 20.4459 32.9213L7.51236 44.7423Z" fill="black"/>
<path fill-rule="evenodd" clip-rule="evenodd" d="M30.3925 29.0328C30.1143 28.7547 29.6276 28.7547 29.2799 29.0328C29.0018 29.311 29.0018 29.7977 29.2799 30.1454L39.2234 40.1584C39.3625 40.2975 39.5711 40.367 39.7797 40.367C39.9883 40.367 40.1969 40.2975 40.336 40.1584C40.6141 39.8803 40.6141 39.3936 40.336 39.0459L30.3925 29.0328Z" fill="black"/>
</svg>
