<svg width="74" height="84" viewBox="0 0 74 84" fill="none" xmlns="http://www.w3.org/2000/svg">
<path d="M25.0956 10.0543H13.8886C13.455 10.0543 13.1074 10.4058 13.1074 10.8355V22.0735C13.1113 22.5032 13.4589 22.8509 13.8886 22.8548H25.0956C25.5253 22.8509 25.873 22.5032 25.8769 22.0735V10.8355C25.8769 10.4058 25.5253 10.0543 25.0956 10.0543ZM24.3144 21.2613H14.6699V11.6597H24.3144V21.2613ZM25.0956 27.5621L13.8886 27.566C13.455 27.566 13.1074 27.9137 13.1074 28.3472V39.5542C13.1113 39.9839 13.4589 40.3316 13.8886 40.3355H25.0956C25.5253 40.3316 25.873 39.9839 25.8769 39.5542V28.3242C25.8652 27.9024 25.5175 27.5664 25.0956 27.5664V27.5621ZM24.3144 38.7421H14.6699V29.1288H24.3144V38.7421ZM42.6074 10.0541H31.3964C30.9667 10.0541 30.6151 10.4056 30.6151 10.8353V22.0733C30.6229 22.503 30.9667 22.8507 31.3964 22.8546H42.6074C43.0371 22.8507 43.3808 22.503 43.3886 22.0733V10.8353C43.3886 10.4056 43.0371 10.0541 42.6074 10.0541ZM41.8261 21.2611H32.1777V11.6595H41.8222L41.8261 21.2611ZM42.6074 27.5619L31.3964 27.5658C30.9667 27.5658 30.6151 27.9135 30.6151 28.347V39.554C30.6229 39.9837 30.9667 40.3314 31.3964 40.3353H42.6074C43.0371 40.3314 43.3808 39.9837 43.3886 39.554V28.324C43.3769 27.9022 43.0293 27.5662 42.6074 27.5662V27.5619ZM41.8261 38.7419H32.1777V29.1286H41.8222L41.8261 38.7419ZM60.1151 10.0539H48.9081C48.4784 10.0539 48.1269 10.4054 48.1269 10.8351V22.0731C48.1308 22.5028 48.4784 22.8505 48.9081 22.8544H60.1151C60.5448 22.8505 60.8925 22.5028 60.8964 22.0731V10.8351C60.8964 10.4054 60.5487 10.0539 60.1151 10.0539ZM59.3339 21.2609H49.6894V11.6593H59.3339V21.2609ZM60.1151 27.5617L48.9081 27.5656C48.4784 27.5656 48.1269 27.9133 48.1269 28.3468V39.5538C48.1308 39.9835 48.4784 40.3312 48.9081 40.3351H60.1151C60.5448 40.3312 60.8925 39.9835 60.8964 39.5538V28.3238C60.8847 27.902 60.5409 27.566 60.1151 27.566V27.5617ZM59.3339 38.7417H49.6894V29.1284H59.3339V38.7417ZM31.3959 72.5117H42.6069C43.0366 72.5078 43.3803 72.1601 43.3881 71.7304V60.5234C43.3881 60.0937 43.0366 59.7422 42.6069 59.7422H31.3959C30.9662 59.7422 30.6146 60.0937 30.6146 60.5234V71.7304C30.6224 72.1601 30.9662 72.5078 31.3959 72.5117ZM32.1771 61.3047H41.8216V70.9492H32.1771V61.3047ZM48.9071 72.5117H60.1141C60.5438 72.5078 60.8915 72.1601 60.8954 71.7304V60.5234C60.8954 60.0937 60.5477 59.7422 60.1141 59.7422H48.9071C48.4774 59.7422 48.1259 60.0937 48.1259 60.5234V71.7304C48.1298 72.1601 48.4774 72.5078 48.9071 72.5117ZM49.6884 61.3047H59.3329V70.9492H49.6884V61.3047ZM0.801381 83.0547H73.1994C73.6291 83.0547 73.9806 82.7031 73.9806 82.2734C73.9806 81.8438 73.6291 81.4922 73.1994 81.4922H67.3947V8.03519C67.3908 3.97659 64.1017 0.683587 60.0431 0.679688H13.9571C9.89848 0.683593 6.60938 3.97659 6.60548 8.03519V81.4492H0.800781C0.371091 81.4492 0.0195312 81.8008 0.0195312 82.2304C0.0195312 82.664 0.371091 83.0117 0.800781 83.0117L0.801381 83.0547ZM15.2814 81.4492V61.3042H25.5434V81.4492H15.2814ZM8.16808 8.03519C8.19542 4.85549 10.7775 2.28909 13.9572 2.28519H60.0432C63.2385 2.28909 65.8284 4.87899 65.8323 8.07429V50.3673H8.16828L8.16808 8.03519ZM8.16808 51.9302H65.8321V81.4502H27.0741V60.5242C27.0741 60.3172 26.996 60.114 26.8475 59.9695C26.6991 59.8211 26.4999 59.739 26.2928 59.7429H14.4998C14.2928 59.739 14.0897 59.8211 13.9451 59.9695C13.7967 60.114 13.7147 60.3172 13.7186 60.5242V81.4502H8.16778L8.16808 51.9302Z" fill="white"/>
</svg>
