<svg width="110" height="97" viewBox="0 0 110 97" fill="none" xmlns="http://www.w3.org/2000/svg">
<path fill-rule="evenodd" clip-rule="evenodd" d="M28.9847 35.9954C31.2855 35.9954 33.3675 35.0618 34.8714 33.5579C36.3792 32.0501 37.3089 29.9681 37.3089 27.6712C37.3089 25.3704 36.3753 23.2884 34.8714 21.7845C33.3636 20.2767 31.2816 19.347 28.9847 19.347C26.6839 19.347 24.6019 20.2806 23.098 21.7845C21.5902 23.2923 20.6605 25.3743 20.6605 27.6712C20.6605 29.972 21.5941 32.054 23.098 33.5579C24.6019 35.0657 26.6839 35.9954 28.9847 35.9954ZM81.9847 60.8274C80.8636 54.4485 77.5355 48.8274 72.8167 44.7844C71.5706 43.718 70.2269 42.7571 68.7972 41.925C68.7738 41.9133 68.7504 41.8977 68.7269 41.882C64.6917 39.5422 60.0042 38.2023 55.0039 38.2023H54.9961C49.9922 38.2023 45.3047 39.5421 41.2731 41.882C41.2497 41.8977 41.2262 41.9094 41.2028 41.925C39.777 42.757 38.4333 43.7141 37.1833 44.7844C32.4645 48.8274 29.1364 54.4485 28.0153 60.8274C31.195 63.8977 35.1989 66.4133 39.7573 68.1633C44.355 69.9328 49.5268 70.9211 54.9993 70.9211C60.4759 70.9211 65.6443 69.9289 70.2413 68.1633C74.8038 66.4094 78.8038 63.8938 81.9833 60.8274H81.9847ZM74.305 43.0424C73.4027 42.269 72.4573 41.5502 71.4691 40.8901C72.6488 40.1909 73.9105 39.6206 75.2308 39.1948C77.0472 38.6089 78.9925 38.2925 81.0199 38.2925C85.6879 38.2925 89.9574 39.9917 93.2429 42.8042C96.4343 45.5386 98.6999 49.3276 99.4968 53.6282C97.5202 55.5032 95.0906 57.0735 92.3406 58.2298C89.864 59.2728 87.1258 59.9876 84.2234 60.2884C82.9812 53.4329 79.3871 47.3974 74.305 43.0424ZM83.3753 62.6634C80.012 65.8509 75.8206 68.4681 71.0633 70.2962C66.1961 72.1673 60.7473 73.2142 55.0043 73.2142C49.2621 73.2142 43.8133 72.1634 38.9453 70.2962C34.1875 68.4681 29.9961 65.8548 26.6333 62.6634C23.1021 62.4095 19.77 61.597 16.7817 60.3392C13.5825 58.9915 10.7739 57.1283 8.52783 54.8939C8.23877 54.6439 8.08252 54.2611 8.14111 53.8587C8.92627 48.7649 11.5317 44.2728 15.2739 41.0657C17.6098 39.0618 20.3911 37.5618 23.4419 36.7337C22.7271 36.2923 22.063 35.7728 21.4731 35.179C19.5512 33.2571 18.3598 30.6009 18.3598 27.6673C18.3598 24.7337 19.5512 22.0775 21.4731 20.1556C23.395 18.2337 26.0512 17.0423 28.9848 17.0423C31.9184 17.0423 34.5746 18.2337 36.4965 20.1556C38.4184 22.0775 39.6098 24.7337 39.6098 27.6673C39.6098 30.6009 38.4184 33.2571 36.4965 35.179C35.9028 35.7727 35.2426 36.2923 34.5238 36.7337C34.8441 36.8196 35.1566 36.9134 35.473 37.0149C37.3558 37.6243 39.1175 38.4876 40.723 39.5618C43.1058 38.2533 45.6839 37.2611 48.4066 36.6439C46.9925 35.9329 45.7113 34.9993 44.6019 33.8939C41.9378 31.2297 40.2933 27.5541 40.2933 23.4918C40.2933 19.4296 41.9417 15.7496 44.6019 13.0898C47.266 10.4257 50.9417 8.78125 55.0039 8.78125C59.0661 8.78125 62.7461 10.4296 65.4059 13.0898C68.07 15.7539 69.7145 19.4296 69.7145 23.4918C69.7145 27.5541 68.0661 31.2302 65.4059 33.8939C64.3004 34.9993 63.0153 35.933 61.6012 36.6439C64.3239 37.261 66.902 38.2533 69.2848 39.5618C70.8903 38.4876 72.652 37.6243 74.5348 37.0149C74.8473 36.9134 75.1637 36.8196 75.484 36.7337C74.7653 36.2923 74.1051 35.7728 73.5113 35.179C71.5894 33.2571 70.398 30.6009 70.398 27.6673C70.398 24.7337 71.5855 22.0775 73.5113 20.1556C75.4332 18.2337 78.0894 17.0423 81.023 17.0423C83.9566 17.0423 86.6128 18.2337 88.5347 20.1556C90.4566 22.0775 91.648 24.7337 91.648 27.6673C91.648 30.6009 90.4566 33.2571 88.5347 35.179C87.9449 35.7688 87.2808 36.2923 86.5659 36.7337C89.6207 37.5657 92.3979 39.0657 94.7339 41.0657C98.4762 44.2727 101.082 48.7649 101.867 53.8587H101.863C101.914 54.2064 101.808 54.5696 101.543 54.8353C99.2847 57.097 96.4566 58.9798 93.23 60.3392C90.2378 61.6009 86.9027 62.4134 83.3753 62.6634ZM25.7813 60.2923C22.879 59.9876 20.1407 59.2767 17.6641 58.2337C14.9141 57.0735 12.4844 55.5071 10.5079 53.6321C11.3048 49.3313 13.5704 45.5423 16.7618 42.8081C20.047 39.9956 24.3165 38.2964 28.9848 38.2964C31.0121 38.2964 32.9575 38.6128 34.7739 39.1987C36.0981 39.6245 37.3559 40.1987 38.5356 40.894C37.5473 41.5542 36.5981 42.2729 35.6997 43.0463C30.6138 47.3979 27.0235 53.4333 25.7813 60.2923ZM55.0003 35.9093H55.0042C58.43 35.9093 61.5315 34.5187 63.7776 32.2726C66.0237 30.0265 67.4143 26.921 67.4143 23.4953C67.4143 20.0656 66.0237 16.9641 63.7776 14.718C61.5315 12.4719 58.426 11.0813 55.0003 11.0813C51.5706 11.0813 48.4691 12.4719 46.223 14.718C43.9769 16.9641 42.5863 20.0696 42.5863 23.4953C42.5863 26.925 43.9769 30.0265 46.223 32.2726C48.4691 34.5187 51.5707 35.9093 54.9964 35.9093H55.0003ZM81.0203 35.9952C83.3211 35.9952 85.4031 35.0616 86.907 33.5577C88.4148 32.0499 89.3445 29.9679 89.3445 27.671C89.3445 25.3702 88.4109 23.2882 86.907 21.7843C85.3992 20.2765 83.3172 19.3468 81.0203 19.3468C78.7195 19.3468 76.6375 20.2804 75.1336 21.7843C73.6258 23.2921 72.6961 25.3741 72.6961 27.671C72.6961 29.9718 73.6297 32.0538 75.1336 33.5577C76.6375 35.0655 78.7195 35.9952 81.0203 35.9952Z" fill="white"/>
</svg>
