<svg width="64" height="70" viewBox="0 0 64 70" fill="none" xmlns="http://www.w3.org/2000/svg">
<g clip-path="url(#clip0_1716_1582)">
<path d="M54.0698 62.4284H44.9998C44.7298 62.4284 44.5098 62.2084 44.5098 61.9384V28.3884C44.5098 28.1184 44.7298 27.8984 44.9998 27.8984H54.0698C54.3398 27.8984 54.5598 28.1184 54.5598 28.3884V61.9384C54.5698 62.2084 54.3498 62.4284 54.0698 62.4284ZM45.4998 61.4484H53.5798V28.8884H45.4998V61.4484Z" fill="black"/>
<path d="M45.0101 28.8887C44.8201 28.8887 44.6401 28.7787 44.5601 28.5887L37.5501 12.0987C37.4701 11.9087 37.5101 11.6987 37.6601 11.5487C40.7301 8.56867 45.8601 6.91867 51.0401 7.24867C55.4901 7.52867 59.2901 9.21867 61.4401 11.9087C61.5501 12.0487 61.5801 12.2487 61.5101 12.4087L54.5201 28.5887C54.4101 28.8387 54.1201 28.9487 53.8701 28.8487C53.6201 28.7387 53.5101 28.4487 53.6101 28.1987L60.4801 12.2987C58.4601 9.95867 55.0201 8.48866 50.9701 8.22866C46.2001 7.92866 41.4901 9.37866 38.5801 12.0287L45.4501 28.1987C45.5601 28.4487 45.4401 28.7387 45.1901 28.8487C45.1401 28.8687 45.0701 28.8887 45.0101 28.8887Z" fill="black"/>
<path d="M54.0698 33.3589H44.9998C44.7298 33.3589 44.5098 33.1389 44.5098 32.8689C44.5098 32.5989 44.7298 32.3789 44.9998 32.3789H54.0698C54.3398 32.3789 54.5598 32.5989 54.5598 32.8689C54.5698 33.1389 54.3498 33.3589 54.0698 33.3589Z" fill="black"/>
<path d="M54.0698 57.98H44.9998C44.7298 57.98 44.5098 57.76 44.5098 57.49C44.5098 57.22 44.7298 57 44.9998 57H54.0698C54.3398 57 54.5598 57.22 54.5598 57.49C54.5698 57.76 54.3498 57.98 54.0698 57.98Z" fill="black"/>
<path d="M49.53 20.0588C49.26 20.0588 49.04 19.8388 49.04 19.5688V7.70875C49.04 7.43875 49.26 7.21875 49.53 7.21875C49.8 7.21875 50.02 7.43875 50.02 7.70875V19.5788C50.02 19.8388 49.8 20.0588 49.53 20.0588Z" fill="black"/>
<path d="M33.3403 62.7197H24.1603C21.7603 62.7197 19.8203 60.7697 19.8203 58.3697V38.1697C19.8203 36.7997 20.9403 35.6797 22.3103 35.6797H35.2103C36.5803 35.6797 37.7003 36.7997 37.7003 38.1697V58.3797C37.6803 60.7697 35.7303 62.7197 33.3403 62.7197ZM22.3003 36.6597C21.4703 36.6597 20.8003 37.3297 20.8003 38.1597V58.3697C20.8003 60.2197 22.3103 61.7297 24.1603 61.7297H33.3403C35.1903 61.7297 36.7003 60.2197 36.7003 58.3697V38.1697C36.7003 37.3397 36.0303 36.6697 35.2003 36.6697H22.3003V36.6597Z" fill="black"/>
<path d="M37.1896 57.8687H20.2996C20.0296 57.8687 19.8096 57.6487 19.8096 57.3787C19.8096 57.1087 20.0296 56.8887 20.2996 56.8887H37.1896C37.4596 56.8887 37.6796 57.1087 37.6796 57.3787C37.6796 57.6487 37.4596 57.8687 37.1896 57.8687Z" fill="black"/>
<path d="M37.1896 41.5191H20.2996C20.0296 41.5191 19.8096 41.2991 19.8096 41.0291C19.8096 40.7591 20.0296 40.5391 20.2996 40.5391H37.1896C37.4596 40.5391 37.6796 40.7591 37.6796 41.0291C37.6796 41.2991 37.4596 41.5191 37.1896 41.5191Z" fill="black"/>
<path d="M35.4196 36.6795C35.1496 36.6795 34.9296 36.4595 34.9296 36.1895V24.6695C34.9296 23.8895 34.2996 23.2595 33.5196 23.2595H24.1996C23.4196 23.2595 22.7896 23.8895 22.7896 24.6695V36.1695C22.7896 36.4395 22.5696 36.6595 22.2996 36.6595C22.0296 36.6595 21.8096 36.4395 21.8096 36.1695V24.6695C21.8096 23.3495 22.8796 22.2695 24.2096 22.2695H33.5296C34.8496 22.2695 35.9296 23.3395 35.9296 24.6695V36.1895C35.9096 36.4595 35.6896 36.6795 35.4196 36.6795Z" fill="black"/>
<path d="M33.5197 23.2594C33.5097 23.2594 33.5097 23.2594 33.4997 23.2594C33.2297 23.2494 33.0197 23.0194 33.0297 22.7494L33.1097 20.7594C33.4297 12.8894 33.7597 4.75941 32.2297 1.56941C32.0197 1.12941 31.5297 0.909409 31.0697 1.01941C28.9597 1.55941 27.2097 3.10941 26.1197 4.30941C25.1997 5.31941 24.6997 6.62941 24.6997 7.98941V22.7694C24.6997 23.0394 24.4797 23.2594 24.2097 23.2594C23.9397 23.2594 23.7197 23.0394 23.7197 22.7694V7.98941C23.7197 6.38941 24.3197 4.84941 25.3997 3.64941C26.5797 2.33941 28.4897 0.659409 30.8397 0.0594094C31.7597 -0.180591 32.7197 0.279409 33.1297 1.13941C34.7697 4.54941 34.4497 12.4394 34.1097 20.7994L34.0297 22.7894C33.9997 23.0494 33.7797 23.2594 33.5197 23.2594Z" fill="black"/>
<path d="M24.2003 8.18928C24.0103 8.18928 23.8203 8.07928 23.7403 7.88928C23.6403 7.63928 23.7603 7.34928 24.0103 7.24928C27.8503 5.66928 30.3803 3.48928 31.7503 0.57928C31.8703 0.32928 32.1603 0.22928 32.4103 0.33928C32.6603 0.45928 32.7603 0.749279 32.6503 0.98928C31.1703 4.12928 28.4703 6.46928 24.4003 8.14928C24.3303 8.17928 24.2603 8.18928 24.2003 8.18928Z" fill="black"/>
<path d="M13.8598 32.5295H5.5398C5.2698 32.5295 5.0498 32.3095 5.0498 32.0395V22.5095C5.0498 22.2395 5.2698 22.0195 5.5398 22.0195H13.8598C14.1298 22.0195 14.3498 22.2395 14.3498 22.5095V32.0395C14.3498 32.3095 14.1298 32.5295 13.8598 32.5295ZM6.0298 31.5395H13.3598V22.9995H6.0298V31.5395Z" fill="black"/>
<path d="M5.53999 22.9987C5.33999 22.9987 5.13999 22.8687 5.06999 22.6687L2.54999 15.2687C2.32999 14.6387 2.45999 13.9387 2.87999 13.4387C7.16999 8.29871 11.83 8.04871 15.81 8.47871C16.36 8.53871 16.85 8.82871 17.17 9.28871C17.49 9.74871 17.59 10.3287 17.45 10.8687L14.34 22.6287C14.27 22.8887 14 23.0487 13.74 22.9787C13.48 22.9087 13.32 22.6387 13.39 22.3787L16.5 10.6187C16.57 10.3487 16.52 10.0687 16.37 9.84871C16.22 9.62871 15.98 9.48871 15.72 9.45871C11.99 9.05871 7.63999 9.28871 3.64999 14.0687C3.44999 14.3087 3.38999 14.6487 3.49999 14.9487L5.99999 22.3487C6.08999 22.6087 5.94999 22.8887 5.68999 22.9687C5.63999 22.9887 5.58999 22.9987 5.53999 22.9987Z" fill="black"/>
<path d="M9.50015 63.9996C8.17015 63.9996 7.06015 62.9596 6.97015 61.6296L5.05015 32.0696C5.03015 31.7996 5.24015 31.5596 5.51015 31.5496C5.78015 31.5196 6.02015 31.7396 6.03015 32.0096L7.95015 61.5696C8.00015 62.3796 8.68015 63.0196 9.50015 63.0196C10.3001 63.0196 10.9801 62.3896 11.0501 61.5896L13.3701 31.9996C13.3901 31.7296 13.6401 31.5296 13.9001 31.5496C14.1701 31.5696 14.3701 31.8096 14.3501 32.0796L12.0301 61.6696C11.9201 62.9696 10.8101 63.9996 9.50015 63.9996Z" fill="black"/>
<path d="M8.58023 22.9995C8.35023 22.9995 8.15023 22.8395 8.10023 22.6195L6.38023 14.9595C6.32023 14.6895 6.49023 14.4295 6.75023 14.3695C7.02023 14.3095 7.28023 14.4795 7.34023 14.7395L9.06023 22.3995C9.12023 22.6695 8.95023 22.9295 8.69023 22.9895C8.65023 22.9995 8.62023 22.9995 8.58023 22.9995Z" fill="black"/>
<path d="M10.9802 22.9999C10.7102 22.9999 10.4902 22.7799 10.4902 22.5099V16.6599C10.4902 16.3899 10.7102 16.1699 10.9802 16.1699C11.2502 16.1699 11.4702 16.3899 11.4702 16.6599V22.5099C11.4702 22.7799 11.2502 22.9999 10.9802 22.9999Z" fill="black"/>
</g>
<defs>
<clipPath id="clip0_1716_1582">
<rect width="64" height="70" fill="white"/>
</clipPath>
</defs>
</svg>
