<svg width="51" height="56" viewBox="0 0 51 56" fill="none" xmlns="http://www.w3.org/2000/svg">
<path fillRule="evenodd" clipRule="evenodd" d="M14.8549 1.20152C14.5507 1.20152 14.3041 1.44815 14.3041 1.75227L14.3042 9.31964C14.3042 9.62258 14.5507 9.87039 14.8548 9.87039H44.795C45.0991 9.87039 45.3457 9.62258 45.3457 9.31968V1.75227C45.3457 1.44815 45.0991 1.20155 44.7949 1.20155L14.8549 1.20152ZM44.795 11.0719H14.8549C13.8887 11.0719 13.1025 10.286 13.1025 9.31968L13.1026 1.75227C13.1026 0.786021 13.8886 0 14.8548 0H44.795C45.7613 0 46.5472 0.786021 46.5472 1.75227L46.5474 9.31964C46.5474 10.2859 45.7612 11.0719 44.795 11.0719Z" fill="black"/>
<path fillRule="evenodd" clipRule="evenodd" d="M28.489 32.5788C28.1573 32.5788 27.8882 32.3097 27.8882 31.978L27.8882 28.2431L14.8963 20.1225H6.42291C4.80699 20.1225 3.28497 19.4904 2.13725 18.3427C0.989525 17.1949 0.357422 15.6729 0.357422 14.0571L0.357458 9.53618C0.357458 7.92028 0.989489 6.39832 2.13725 5.25058C3.28501 4.10278 4.80695 3.4707 6.4228 3.4707H13.7035C14.0353 3.4707 14.3043 3.73984 14.3043 4.0715C14.3043 4.40319 14.0352 4.67229 13.7035 4.67229L6.42291 4.67226C5.12875 4.67226 3.9083 5.17922 2.98707 6.10042C2.06588 7.02158 1.55896 8.24198 1.55896 9.53618V14.0571C1.55896 15.3513 2.06588 16.5716 2.98707 17.4928C3.90837 18.414 5.12861 18.9209 6.4228 18.9209H15.0691C15.1817 18.9209 15.2918 18.9522 15.3869 19.0123L28.8081 27.4008C28.9834 27.5096 29.0897 27.7024 29.0897 27.9102V31.978C29.0897 32.3097 28.8206 32.5788 28.489 32.5788ZM31.051 32.5788C30.7194 32.5788 30.4502 32.3097 30.4502 31.978L30.4503 26.3594L15.9991 17.3739C15.9878 17.3676 15.9765 17.3601 15.9664 17.3527C15.82 17.2475 15.646 17.1924 15.4645 17.1924H6.42291C5.59059 17.1924 4.80443 16.8645 4.2099 16.2712C3.61547 15.6767 3.28745 14.8907 3.28745 14.0571L3.28752 9.53618C3.28752 8.70382 3.6154 7.91654 4.2099 7.32326C4.80447 6.72872 5.59048 6.4008 6.4228 6.4008H13.7035C14.0353 6.4008 14.3043 6.6699 14.3043 7.00163C14.3043 7.33451 14.0352 7.60235 13.7035 7.60235H6.42291C5.91092 7.60235 5.42651 7.80516 5.05854 8.17187C4.69183 8.53984 4.48907 9.02422 4.48907 9.53618V14.0571C4.48907 14.569 4.69183 15.0534 5.05976 15.4213C5.42654 15.7881 5.91088 15.9908 6.4228 15.9908H15.4646C15.8914 15.9908 16.2994 16.1198 16.6486 16.3625L31.369 25.5158C31.5454 25.6247 31.6518 25.8174 31.6518 26.0252L31.6518 31.978C31.6518 32.3097 31.3827 32.5788 31.051 32.5788Z" fill="black"/>
<path fillRule="evenodd" clipRule="evenodd" d="M46.5484 6.69482H49.0102V4.37925H46.5484V6.69482ZM49.1216 7.89641H45.9475C45.6158 7.89641 45.3467 7.62731 45.3467 7.29562V3.77853C45.3467 3.4468 45.6158 3.17777 45.9474 3.17777L49.1216 3.17773C49.7224 3.17773 50.2118 3.66589 50.2118 4.26795V6.80624C50.2118 7.40703 49.7224 7.89641 49.1216 7.89641Z" fill="black"/>
<path fillRule="evenodd" clipRule="evenodd" d="M27.4102 32.5766C27.1148 32.5766 26.8744 32.8169 26.8744 33.1123L26.8745 53.2962C26.8745 53.5916 27.1147 53.8319 27.4101 53.8319H32.2402C32.5356 53.8319 32.7758 53.5916 32.7758 53.2962L32.7758 33.1123C32.7758 32.8169 32.5355 32.5766 32.2401 32.5766H27.4102ZM32.2402 55.0334H27.4102C26.4515 55.0334 25.6729 54.2537 25.6729 53.2962L25.6729 33.1123C25.6729 32.1548 26.4514 31.375 27.4101 31.375H32.2402C33.1977 31.375 33.9774 32.1548 33.9774 33.1123L33.9775 53.2962C33.9775 54.2537 33.1976 55.0334 32.2402 55.0334Z" fill="black"/>
<path fillRule="evenodd" clipRule="evenodd" d="M33.3767 36.3636H26.2736C25.942 36.3636 25.6729 36.0946 25.6729 35.7629C25.6729 35.4312 25.9419 35.1621 26.2736 35.1621H33.3767C33.7083 35.1621 33.9774 35.4312 33.9774 35.7629C33.9775 36.0946 33.7083 36.3637 33.3767 36.3636Z" fill="black"/>
<path fillRule="evenodd" clipRule="evenodd" d="M33.3767 51.2464H26.2736C25.942 51.2464 25.6729 50.9773 25.6729 50.6457C25.6729 50.314 25.9419 50.0449 26.2736 50.0449H33.3767C33.7083 50.0449 33.9774 50.314 33.9774 50.6457C33.9775 50.9773 33.7083 51.2464 33.3767 51.2464Z" fill="black"/>
</svg>
