<svg width="53" height="53" viewBox="0 0 53 53" fill="none" xmlns="http://www.w3.org/2000/svg">
<path d="M44.4307 52.6765C45.4488 52.8939 46.4966 53 47.5579 53C48.6192 53 49.7564 52.8861 50.8719 52.6558C52.1065 52.4048 53 51.3437 53 50.1377V46.8379C53 37.4485 45.998 29.3531 36.3566 27.5907C35.4983 27.4329 34.8729 26.716 34.8729 25.8827V24.4437C34.8729 23.1523 33.779 22.099 32.4253 22.086V17.0239C32.4253 16.1828 31.7674 15.4944 30.9145 15.3883V9.20036C31.9813 9.08131 32.8612 8.38512 33.2159 7.44571L38.1869 8.0099C38.325 8.02284 38.4712 8.03578 38.6093 8.03578C39.4838 8.03578 40.3286 7.73039 40.9865 7.17396C41.7501 6.52437 42.1914 5.59011 42.1914 4.61699C42.1914 3.64386 41.7555 2.70188 40.9865 2.06002C40.223 1.41043 39.1996 1.10505 38.1869 1.21894L33.2159 1.7883C32.8341 0.74793 31.808 0 30.5895 0H24.5788C23.3658 0 22.3396 0.74793 21.9525 1.7883L16.9814 1.22412C15.9688 1.10507 14.9426 1.41563 14.1818 2.0652C13.4182 2.71479 12.9769 3.64905 12.9769 4.62217C12.9769 5.59529 13.4128 6.52953 14.1818 7.17914C14.8397 7.73556 15.6926 8.04096 16.559 8.04096C16.6971 8.04096 16.8433 8.0332 16.9814 8.01508L21.9524 7.45089C22.299 8.39295 23.1789 9.08655 24.2538 9.20554V15.3934C23.409 15.4996 22.743 16.1879 22.743 17.0291V22.0912C21.392 22.1042 20.2954 23.1575 20.2954 24.4489V30.479C20.2954 31.4391 19.4778 32.2207 18.4733 32.2207H16.9489C16.9219 31.1338 15.9932 30.259 14.8479 30.259H12.2216C11.079 30.259 10.1557 31.1338 10.1206 32.213H2.47468C1.11005 32.213 0 33.2741 0 34.5784V41.9722C0 43.2766 1.11012 44.3377 2.47468 44.3377H10.1206C10.1477 45.4246 11.0763 46.2994 12.2216 46.2994H14.8479C15.9851 46.2994 16.9138 45.4246 16.9408 44.3454H17.5636C18.2567 44.3454 18.9498 44.6249 19.5049 45.127C20.9182 46.4055 24.0102 47.1948 27.5736 47.1948C31.1367 47.1948 34.2342 46.4003 35.6423 45.127C36.2028 44.6223 36.8905 44.3454 37.589 44.3454H39.7388C41.1603 44.3454 42.3164 45.4531 42.3246 46.8428V50.1684C42.3246 51.3667 43.2045 52.42 44.4256 52.6788L44.4307 52.6765ZM33.3836 3.76851L38.4304 3.19138C38.8609 3.1448 39.2833 3.27161 39.6082 3.54335C39.9331 3.82286 40.1145 4.19812 40.1145 4.61738C40.1145 5.03405 39.9331 5.41189 39.6082 5.69141C39.2833 5.97093 38.8663 6.09514 38.4304 6.04338L33.3836 5.46625V3.76335V3.76851ZM21.7876 5.47141L16.7408 6.04853C16.3103 6.09512 15.8879 5.96831 15.563 5.69656C15.2381 5.41706 15.0567 5.04179 15.0567 4.62253C15.0567 4.20586 15.2381 3.82803 15.563 3.5485C15.8392 3.3104 16.1857 3.1836 16.554 3.1836C16.6162 3.1836 16.6785 3.1836 16.7408 3.19654L21.7876 3.77366V5.47656L21.7876 5.47141ZM3.38431 42.3532H2.48268C2.26879 42.3532 2.08739 42.1875 2.08739 41.9753V34.5815C2.08739 34.377 2.26067 34.2036 2.48268 34.2036H3.38431V42.3532ZM6.7525 42.3532H5.46369V34.2034H6.7525V42.3532ZM10.1288 42.3532H8.83999V34.2034H10.1288V42.3532ZM14.8561 44.3071L12.2082 44.2864L12.2298 32.2469H14.8562L14.8778 32.2676L14.8561 44.3071ZM23.8668 6.56339V2.66844C23.8668 2.29059 24.1863 1.98524 24.5816 1.98524H30.5923C30.9876 1.98524 31.3071 2.29062 31.3071 2.66844V6.56339C31.3071 6.94124 30.9876 7.24659 30.5923 7.24659H24.5816C24.1863 7.24659 23.8668 6.9412 23.8668 6.56339ZM30.346 17.3633V22.0864H24.8281V17.3633H30.346ZM26.3334 15.3757V9.23955H28.8352V15.3757H26.3334ZM39.7468 42.3533H37.597C36.3705 42.3533 35.1711 42.8243 34.2207 43.6783C33.4084 44.4134 30.9825 45.2027 27.5819 45.2027C24.1785 45.2027 21.7525 44.4134 20.943 43.6783C20.0008 42.8243 18.8014 42.3533 17.5748 42.3533H16.9575V34.2035H18.4764C20.6316 34.2035 22.378 32.5265 22.378 30.4742V24.4441C22.378 24.2396 22.5512 24.0662 22.7733 24.0662H32.4015C32.6154 24.0662 32.7968 24.2319 32.7968 24.4441V25.883C32.7968 27.6662 34.1289 29.2086 35.97 29.5399C44.6341 31.1237 50.9264 38.3986 50.9264 46.8379V50.1376C50.9264 50.4171 50.726 50.6552 50.4417 50.7147C48.5275 51.1055 46.6566 51.1133 44.8832 50.7354C44.6124 50.6759 44.4121 50.4378 44.4121 50.1661V46.8069C44.4121 44.356 42.3192 42.3607 39.747 42.3607L39.7468 42.3533Z" fill="#3E3B3B"/>
</svg>
