<svg width="79" height="67" viewBox="0 0 79 67" fill="none" xmlns="http://www.w3.org/2000/svg">
<path d="M76.1768 46.968L76.1757 44.5301C76.1757 44.2513 75.9712 44.0143 75.6949 43.9731L75.5615 43.9505C75.5499 43.9484 75.5404 43.9469 75.529 43.9447C75.5767 43.5882 75.6344 43.1851 75.6968 42.7516C75.9076 41.2891 76.1462 39.6313 76.1509 38.6793C76.1759 33.6201 74.8371 28.4803 72.0579 22.9657C71.6297 22.1157 70.8816 22.3488 70.6358 22.4264C68.703 23.0301 67.3088 24.2966 66.1998 25.4559C65.937 25.7308 65.6769 26.0082 65.4165 26.2859C64.8257 26.9154 64.2149 27.5662 63.5881 28.1693C62.4242 29.2885 61.1711 29.7718 59.7596 29.6484C59.4744 29.6231 59.1884 29.6058 58.9024 29.5882C58.4191 29.5585 57.9623 29.5307 57.5085 29.4664C55.0838 29.1241 53.4904 27.9901 52.6374 25.9994C52.4732 25.6156 52.2723 25.2558 52.0781 24.908L52.0216 24.8068C51.3978 23.6849 50.378 23.0826 49.1269 23.1062C47.4657 23.118 45.5535 23.2236 43.8841 24.3329C43.8654 24.3453 43.8552 24.3643 43.8385 24.3784C43.8259 24.3885 43.8097 24.3917 43.7978 24.4035L42.0226 26.1748L39.1574 28.9779L39.1558 28.9802L39.1535 28.9817L37.3861 30.7451L34.453 33.3933C34.4492 33.3967 34.4479 33.4015 34.4442 33.405C34.4407 33.4084 34.436 33.4093 34.4326 33.4128L32.6711 35.1703C31.6081 36.0791 30.7157 36.7776 29.6835 37.5849L28.8523 38.2364C27.2746 39.4788 25.693 40.132 24.0178 40.2334C23.0264 40.2933 22.0106 40.314 21.028 40.3338C20.2408 40.3494 19.4534 40.3654 18.6667 40.4006C18.0457 40.4283 17.4227 40.4467 16.7997 40.4649C15.0515 40.5163 13.244 40.5694 11.482 40.8385C8.42025 41.3059 6.14258 43.9413 5.12539 46.5074C4.40474 46.365 4.07355 46.7258 3.50045 47.815C3.49963 47.8167 3.47428 47.865 3.47345 47.8667L3.43984 47.9305C2.84689 48.9908 2.68103 49.8464 2.93314 50.5455C3.1227 51.0708 3.53269 51.4593 4.15236 51.6998C4.56675 51.8609 4.9806 52.0253 5.39445 52.19C6.80599 52.7511 8.26575 53.3312 9.75361 53.7702C15.2383 55.3881 21.3476 56.234 28.9801 56.4322L29.3229 56.4413C30.1811 56.4641 31.0485 56.4872 31.9195 56.4872C33.8203 56.4872 35.7378 56.3775 37.6116 55.9156C39.7977 55.3774 41.9813 54.7057 44.0929 54.0561C45.0694 53.7559 46.0456 53.4557 47.0248 53.167C48.6273 52.6953 50.2312 52.2277 51.8673 51.751L53.2915 51.3356L53.2921 54.1884C53.2943 55.6344 53.8007 56.1477 55.2277 56.1501C57.1189 56.1537 59.0101 56.1537 60.9011 56.1537L65.1098 56.1543C68.1674 56.1548 71.2241 56.1559 74.2806 56.1529C75.0887 56.1521 76.1635 55.9803 76.1707 54.5059C76.1804 52.4921 76.1784 49.5107 76.1768 46.968ZM44.1932 25.6014L45.7624 27.1942C45.8886 27.322 46.1192 27.382 46.2963 27.3564C47.0254 27.3564 47.6186 27.9937 47.6186 28.7769C47.6186 29.5604 47.0254 30.1976 46.2963 30.1976C45.564 30.1976 44.968 29.5604 44.968 28.7769C44.968 28.7519 44.9664 28.7249 44.9688 28.7049C45.0063 28.5207 44.9496 28.3302 44.817 28.1965L43.2134 26.5789L44.1932 25.6014ZM39.5519 30.1768L40.9365 31.5632C41.0624 31.6891 41.2911 31.7479 41.4677 31.7226C42.1967 31.7226 42.7899 32.3599 42.7899 33.1431C42.7899 33.9266 42.1967 34.5638 41.4677 34.5638C40.7353 34.5638 40.1393 33.9266 40.1393 33.1431C40.1393 33.1181 40.1377 33.0911 40.1402 33.0711C40.1779 32.8855 40.1198 32.6933 39.9856 32.5597L38.5721 31.1544L39.5519 30.1768ZM34.8329 34.6056L36.2257 35.9854C36.3442 36.1025 36.5307 36.1603 36.6966 36.1441L36.7547 36.1432C37.4838 36.1432 38.077 36.7805 38.077 37.5637C38.077 38.3469 37.4838 38.9842 36.7547 38.9842C36.0224 38.9842 35.4264 38.3469 35.4264 37.5637C35.4264 37.5387 35.4248 37.5115 35.4272 37.4909C35.4653 37.3045 35.4063 37.1118 35.2705 36.9781L33.8531 35.5832L34.8329 34.6056ZM11.6528 41.9514C13.3462 41.6929 15.1187 41.6407 16.8328 41.5904C17.4618 41.572 18.0903 41.5536 18.7174 41.5255C19.4947 41.4909 20.2728 41.4752 21.0509 41.4595C22.0447 41.4395 23.0722 41.4188 24.0861 41.3573C25.9724 41.2432 27.8113 40.4905 29.5513 39.1206L30.3798 38.4712C31.2949 37.7553 32.1078 37.1162 33.0226 36.3474L34.2981 37.6028C34.3182 38.9891 35.4126 40.1102 36.7547 40.1102C38.1062 40.1102 39.2056 38.968 39.2056 37.5637C39.2056 36.1935 38.1586 35.0724 36.852 35.0191L35.6516 33.8299L37.7546 31.9313L39.0111 33.1805C39.0303 34.5677 40.125 35.6899 41.4677 35.6899C42.8192 35.6899 43.9185 34.5474 43.9185 33.1431C43.9185 31.7732 42.8723 30.6526 41.5666 30.5985L40.3538 29.3843L42.4116 27.3712L43.8397 28.8118C43.8576 30.2001 44.9529 31.3237 46.2963 31.3237C47.6478 31.3237 48.7472 30.1812 48.7472 28.7769C48.7472 27.4078 47.7024 26.2878 46.3977 26.2326L45.1147 24.93C46.394 24.3127 47.8449 24.2415 49.1351 24.2323C49.1423 24.2323 49.1492 24.2323 49.1561 24.2323C50.0006 24.2323 50.6153 24.599 51.0349 25.3537L51.0922 25.4562C51.2804 25.7935 51.4584 26.1121 51.5998 26.442C52.6068 28.7923 54.5416 30.185 57.3501 30.5814C57.8485 30.6518 58.3491 30.6826 58.8335 30.712C59.1093 30.7291 59.3851 30.7458 59.6601 30.77C61.3976 30.924 62.9783 30.3203 64.3711 28.9801C65.0192 28.3571 65.6399 27.6954 66.2403 27.0554C66.4982 26.7805 66.7561 26.5055 67.0165 26.2334C68.0258 25.178 69.2852 24.028 70.9731 23.5007C71.0053 23.4908 71.0315 23.4831 71.0525 23.4776C73.748 28.8272 75.0465 33.7982 75.0223 38.6738C75.0182 39.5483 74.7751 41.2355 74.5798 42.5914C74.509 43.0814 74.444 43.5365 74.3931 43.9262C69.0458 43.975 64.1795 44.2723 59.5562 44.8393C54.268 45.4881 49.0362 46.7673 43.5623 48.7503C39.1827 50.3365 35.7163 51.053 32.3228 51.073C27.1941 51.103 22.6531 50.8141 18.4188 50.1883C13.464 49.4559 9.57837 48.4085 6.18756 46.8909C7.21973 44.2947 9.40854 42.2942 11.6528 41.9514ZM75.0421 54.5004C75.0402 54.9042 75.0396 55.026 74.2795 55.0268C71.223 55.0301 68.166 55.029 65.1104 55.0282L60.9011 55.0277C59.0107 55.0277 57.1203 55.0277 55.2296 55.0241C54.4217 55.0227 54.4217 55.0227 54.4206 54.1867L54.4201 51.8117L54.4204 50.5845C54.4204 50.4072 54.3366 50.2403 54.1944 50.1339C54.0525 50.0278 53.8682 49.9951 53.6976 50.044L51.551 50.67C49.9138 51.1472 48.3088 51.6149 46.7052 52.0872C45.7216 52.3769 44.741 52.6785 43.7606 52.9801C41.6641 53.6248 39.496 54.2917 37.3411 54.8226C34.7566 55.4596 32.0087 55.3859 29.3529 55.3158L29.0096 55.3067C21.4782 55.1107 15.4612 54.2794 10.0738 52.6903C8.63523 52.2662 7.2 51.6957 5.81215 51.144C5.39555 50.9782 4.97895 50.8127 4.56179 50.6508C4.25568 50.5317 4.07025 50.3725 3.99503 50.1644C3.90355 49.9101 3.90383 49.4117 4.42568 48.4787L4.4987 48.3401C4.66319 48.0275 4.83292 47.7053 4.92715 47.5962C5.06794 47.6239 5.39693 47.7713 5.7193 47.9156C9.20558 49.4774 13.1884 50.5534 18.2534 51.3023C22.5451 51.9368 27.1465 52.2268 32.3294 52.1991C35.8579 52.1782 39.4409 51.4409 43.9475 49.8087C49.3404 47.8551 54.4912 46.5952 59.694 45.9571C64.4623 45.3721 69.488 45.0733 75.0474 45.0441L75.0482 46.9688C75.0499 49.5093 75.0518 52.4886 75.0421 54.5004Z" fill="black"/>
</svg>
