<svg width="28" height="61" viewBox="0 0 28 61" fill="none" xmlns="http://www.w3.org/2000/svg">
<path d="M27.3844 44.798C27.3844 41.8197 25.9575 39.077 24.7026 36.6517C23.814 34.9441 23.0465 33.472 23.0465 32.3885C23.0465 29.884 24.2376 27.4787 26.2091 23.5081L26.6901 22.5352C28.1328 19.6081 28.3844 17.2709 27.4417 15.5804C26.8047 14.4401 25.6231 13.6573 24.0243 13.3226C20.2246 12.5227 19.7022 11.3825 19.7022 10.2791C19.7022 9.26937 19.2532 8.68789 18.871 8.38437C18.0397 7.70931 16.9473 7.78306 16.9058 7.78873H14.8197V6.47547C16.4599 6.14077 17.683 4.8417 17.683 3.2817C17.683 1.4749 16.0268 0 13.998 0C11.9691 0 10.313 1.4749 10.313 3.2817C10.313 4.8417 11.5456 6.14363 13.1826 6.47547V7.78873H11.1697C11.0487 7.78022 9.95621 7.70931 9.13132 8.38437C8.74912 8.69071 8.30007 9.26937 8.30007 10.2791C8.30007 11.3825 7.77774 12.5227 3.97806 13.3226C2.37924 13.6573 1.19755 14.4401 0.560601 15.5804C-0.385368 17.2709 -0.133719 19.6109 1.31226 22.5352L1.79318 23.4996C3.76788 27.4791 4.95584 29.8758 4.95584 32.3858C4.95584 33.4665 4.18827 34.9414 3.29971 36.649C2.0448 39.0656 0.617937 41.8197 0.617937 44.7953C0.617937 45.3314 0.617937 45.8335 0.608382 46.3128C0.576533 49.152 0.560606 51.0241 1.76773 52.1132C2.40472 52.6862 3.33475 52.9698 4.59601 52.9698H11.7558V60.2739C11.7558 60.6738 12.122 61 12.5711 61H15.4407C15.8898 61 16.2561 60.6738 16.2561 60.2739V52.9698H23.4158C24.6803 52.9698 25.6007 52.6947 26.2441 52.1132C27.4513 51.0241 27.4353 49.152 27.4035 46.3128C27.4035 45.8334 27.3939 45.3313 27.3939 44.7953L27.3844 44.798ZM11.9498 3.28425C11.9498 2.27451 12.8702 1.45479 14.0041 1.45479C15.1379 1.45479 16.0584 2.27451 16.0584 3.28425C16.0584 4.29399 15.1379 5.11371 14.0041 5.11371C12.8702 5.11371 11.9498 4.29399 11.9498 3.28425ZM14.6251 59.5441H13.3862V52.9664H14.6251V59.5441ZM25.0747 51.0913C24.8708 51.2728 24.4791 51.5111 23.4121 51.5111H4.60195C3.53498 51.5111 3.13367 51.2728 2.93937 51.0913C2.21319 50.4389 2.22913 48.7087 2.25461 46.329C2.25461 45.8496 2.26416 45.3419 2.26416 44.7973C2.26416 42.1395 3.60818 39.5471 4.79305 37.2609C5.76446 35.403 6.59571 33.7891 6.59571 32.388C6.59571 29.5714 5.34724 27.0669 3.29289 22.9114L2.81196 21.947C1.58894 19.4708 1.31188 17.4882 2.02846 16.226C2.45206 15.4715 3.23558 14.9694 4.35987 14.7368C6.96198 14.1922 9.9367 13.191 9.9367 10.278C9.9367 9.90078 10.0354 9.62565 10.2297 9.46397C10.4495 9.28244 10.7935 9.2399 11.0132 9.2399H11.1024H16.9818C17.122 9.23139 17.536 9.25408 17.7876 9.46397C17.9819 9.62281 18.0806 9.90077 18.0806 10.278C18.0806 13.191 21.065 14.1838 23.6575 14.7368C24.7817 14.9751 25.5748 15.4771 25.9889 16.226C26.6991 17.4967 26.4284 19.4793 25.2054 21.947L24.7244 22.9114C22.6606 27.0639 21.4216 29.5628 21.4216 32.3792C21.4216 33.7748 22.2529 35.3858 23.2243 37.2522C24.4154 39.5383 25.7595 42.1308 25.7595 44.7886C25.7595 45.3246 25.7595 45.8352 25.7691 46.3202C25.7946 48.7028 25.8105 50.4302 25.0843 51.0826L25.0747 51.0913Z" fill="black"/>
</svg>
