<svg width="27" height="34" viewBox="0 0 27 34" fill="none" xmlns="http://www.w3.org/2000/svg">
<path d="M12.8273 0.531089C13.1978 0.223239 13.7351 0.223238 14.1055 0.531088L26.5719 10.8904C26.8006 11.0804 26.9328 11.3622 26.9328 11.6595V23.0145C26.9328 23.3381 26.7762 23.6417 26.5125 23.8293L14.0461 32.6976C13.6991 32.9445 13.2338 32.9445 12.8867 32.6976L0.420333 23.8293C0.156621 23.6417 0 23.3381 0 23.0145V11.6595C0 11.3622 0.132254 11.0804 0.360886 10.8904L12.8273 0.531089Z" fill="#E97124"/>
<mask id="mask0_1716_1503" style="mask-type:alpha" maskUnits="userSpaceOnUse" x="3" y="7" width="20" height="19">
<rect x="3.86719" y="7.25781" width="18.2918" height="18.2918" fill="#D9D9D9"/>
</mask>
<g mask="url(#mask0_1716_1503)">
<path d="M10.6969 19.9519L13.0112 18.5585L15.3254 19.971L14.7148 17.332L16.757 15.5667L14.0753 15.3281L13.0112 12.8324L11.947 15.3136L9.26534 15.5476L11.3075 17.3274L10.6969 19.9519ZM8.07695 23.5714L9.37928 17.9576L5.02051 14.1786L10.7723 13.6841L13.0112 8.38867L15.25 13.6841L21.0018 14.1786L16.643 17.9576L17.9454 23.5714L13.0112 20.5912L8.07695 23.5714Z" fill="white"/>
</g>
</svg>
